<svg width="73" height="73" viewBox="0 0 73 73" fill="none" xmlns="http://www.w3.org/2000/svg">
<path fill-rule="evenodd" clip-rule="evenodd" d="M36.8334 72.5C56.7156 72.5 72.8334 56.3823 72.8334 36.5C72.8334 16.6177 56.7156 0.5 36.8334 0.5C23.4684 0.5 11.8045 7.78296 5.59381 18.5967L4.00236 21.7093C3.42801 22.9822 2.92551 24.2945 2.50003 25.641C2.31366 26.2379 1.89131 27.6743 1.69282 28.6452C1.13015 31.1736 0.833374 33.8021 0.833374 36.5C0.833374 40.0318 1.34198 43.4449 2.28993 46.6699C2.52558 47.5199 3.0749 49.0268 3.32011 49.674C3.87264 51.0785 4.51089 52.4398 5.22844 53.7516L7.01762 56.6811C13.4917 66.2273 24.43 72.5 36.8334 72.5ZM36.8333 70.1789C55.408 70.1789 70.4658 55.1211 70.4658 36.5464C70.4658 17.9717 55.408 2.9139 36.8333 2.9139C18.2586 2.9139 3.20078 17.9717 3.20078 36.5464C3.20078 55.1211 18.2586 70.1789 36.8333 70.1789Z" fill="#D9D9D9"/>
<circle cx="36.8335" cy="36.5" r="28.8" fill="black" fill-opacity="0.5"/>
<path d="M60.2308 37.3253C59.5439 49.557 49.4067 59.264 37.0021 59.264C24.1527 59.264 13.7363 48.8484 13.7363 36.0001C13.7363 23.1518 24.1527 12.7362 37.0021 12.7362C48.65 12.7362 58.2987 21.2951 60.0013 32.4664H59.568C57.8693 21.5325 48.413 13.1644 37.0021 13.1644C24.3892 13.1644 14.1645 23.3883 14.1645 36.0001C14.1645 48.612 24.3892 58.8359 37.0021 58.8359C49.1702 58.8359 59.1156 49.3204 59.8019 37.3253H60.2308Z" fill="white"/>
<path d="M52.5393 20.7193C55.6264 23.8573 57.7699 27.9262 58.5103 32.4664H58.1038C57.3677 28.039 55.2718 24.0713 52.2597 21.0069C52.1203 21.0511 51.9618 21.0223 51.8455 20.9172L50.6493 19.8369C50.5295 19.7288 50.4856 19.568 50.5209 19.4214C46.8361 16.4136 42.1298 14.6097 37.0021 14.6097C36.9037 14.6097 36.8054 14.6103 36.7072 14.6117V14.9468C36.7071 14.9468 36.7074 14.9468 36.7072 14.9468L36.7076 15.3129L36.7288 15.3341C36.7216 15.3342 36.7144 15.3343 36.7072 15.3344V15.6831C36.8054 15.6817 36.9037 15.681 37.0021 15.681L37.0021 16.055C36.9036 16.055 36.8054 16.0557 36.7072 16.0571V16.4194C36.8054 16.4179 36.9037 16.4172 37.0021 16.4172L37.0021 16.7776C36.9036 16.7776 36.8054 16.7784 36.7072 16.7798V16.8598H36.5049C36.7025 16.8667 36.8718 16.9848 36.9522 17.1535C36.9688 17.1534 36.9855 17.1534 37.0021 17.1534V17.5951C37.0021 17.5951 37.0021 17.5951 37.0021 17.5951L37.002 17.8896C37.002 17.8896 37.0021 17.8896 37.002 17.8896L37.0021 18.3141C37.0021 18.3141 37.0021 18.3141 37.0021 18.3141L37.002 18.6258C37.002 18.6258 37.0021 18.6258 37.002 18.6258L37.0021 19.033C37.0021 19.033 37.0021 19.033 37.0021 19.033L37.002 19.362C37.002 19.362 37.0021 19.362 37.002 19.362L37.0021 19.752C37.0021 19.752 37.0021 19.752 37.0021 19.752L37.002 19.8784C37.002 20.1631 36.7712 20.3938 36.4866 20.3938C36.2019 20.3938 35.9711 20.1631 35.9711 19.8784V17.3749C35.9711 17.0964 36.192 16.8695 36.4682 16.8598H36.2654V16.7915C36.1918 16.7943 36.1183 16.7974 36.045 16.801V16.4402C36.1183 16.4366 36.1918 16.4335 36.2654 16.4308V16.0683C36.1918 16.071 36.1183 16.0741 36.045 16.0775V15.7031C36.1183 15.6997 36.1918 15.6967 36.2654 15.6941V15.3452C36.2573 15.3455 36.2491 15.3458 36.241 15.3461L36.2654 15.3135V14.6221C24.7919 15.0104 15.6099 24.433 15.6099 36.0001C15.6099 47.3188 24.4019 56.5842 35.5296 57.3407V57.3499H35.6723C35.7717 57.356 35.8713 57.3614 35.9711 57.3662V55.1412H36.174C35.8978 55.1315 35.6768 54.9046 35.6768 54.6261V52.1226C35.6768 51.8379 35.9076 51.6072 36.1923 51.6072C36.477 51.6072 36.7078 51.8379 36.7078 52.1226V54.6261C36.7078 54.9046 36.4868 55.1315 36.2106 55.1412H36.4129V55.2138C36.4129 55.2138 36.413 55.2138 36.4129 55.2138L36.4131 55.5744C36.413 55.5744 36.4132 55.5744 36.4131 55.5744L36.4129 55.9367C36.4129 55.9367 36.413 55.9367 36.4129 55.9367L36.4131 56.3109C36.413 56.3109 36.4132 56.3109 36.4131 56.3109L36.4129 56.6597C36.4129 56.6597 36.413 56.6597 36.4129 56.6597L36.4131 57.0474C36.413 57.0474 36.4132 57.0474 36.4131 57.0474L36.4129 57.3826C36.6087 57.3879 36.8051 57.3906 37.0021 57.3906C48.3716 57.3906 57.6696 48.5217 58.3539 37.3253H58.7558C58.0708 48.7433 48.5932 57.7916 37.0021 57.7916C36.8051 57.7916 36.6087 57.789 36.4129 57.7838V57.792H35.9711V57.7677C24.4137 57.2295 15.2088 47.6897 15.2088 36.0001C15.2088 24.2115 24.5704 14.6092 36.2654 14.2208V14.209H36.7072V14.2106C36.8054 14.2093 36.9037 14.2086 37.0021 14.2086C42.2323 14.2086 47.0322 16.0509 50.7882 19.1219C50.9315 19.0696 51.0983 19.0963 51.2194 19.2057L52.4156 20.286C52.5402 20.3986 52.5827 20.5681 52.5393 20.7193Z" fill="white"/>
<path d="M35.5296 55.8918V56.2667C35.5296 56.2667 35.5296 56.2667 35.5296 56.2667L35.5295 56.6163C35.5294 56.6163 35.5295 56.6163 35.5295 56.6163L35.5296 57.0048C24.5871 56.2489 15.945 47.1337 15.945 36.0001C15.945 24.7669 24.7426 15.5882 35.8241 14.9772V15.3653C24.9567 15.9759 16.3326 24.9809 16.3326 36.0001C16.3326 46.8194 24.6467 55.697 35.2349 56.5934V56.2435C24.8395 55.348 16.6813 46.6267 16.6813 36.0001C16.6813 26.2427 23.5595 18.0917 32.7322 16.1303V16.1231H32.7661C33.2396 16.0227 33.7192 15.9388 34.2043 15.872L34.205 17.5958H32.7322V17.2535C32.3831 17.3326 32.0376 17.4213 31.6961 17.5192L30.9648 17.6687V17.7447C23.3052 20.276 17.778 27.4927 17.778 36.0001C17.778 44.3982 23.1639 51.5384 30.6703 54.1556V54.3315L33.9098 54.9941L35.5296 55.2886V55.5285C25.4011 54.7757 17.4176 46.3202 17.4176 36.0001C17.4176 26.6512 23.9693 18.8324 32.7322 16.884V16.513C23.7676 18.4679 17.0553 26.4502 17.0553 36.0001C17.0553 46.5203 25.2009 55.1382 35.5296 55.8918Z" fill="white"/>
<path d="M30.6703 53.757C23.3753 51.1559 18.1538 44.1877 18.1538 36.0001C18.1538 27.7027 23.5162 20.6577 30.9648 18.141V18.608C30.9644 18.6081 30.9641 18.6082 30.9638 18.6084V18.9205C30.9641 18.9204 30.9644 18.9202 30.9648 18.9201V19.3711C25.1982 21.4649 20.8295 26.4723 19.6385 32.6136H19.9562C21.1354 26.6455 25.3712 21.7759 30.9648 19.7033V20.1384C30.9644 20.1385 30.9641 20.1386 30.9638 20.1388V20.4914C30.9641 20.4913 30.9644 20.4911 30.9648 20.491V20.9104C26.5083 22.6948 23.0263 26.3958 21.5385 30.994H26.1054C26.1054 30.8313 26.2373 30.6995 26.4 30.6995H29.345C29.5076 30.6995 29.6395 30.8313 29.6395 30.994H31.9955V31.4357H29.6395C29.6395 31.5983 29.5076 31.7302 29.345 31.7302H26.4C26.2373 31.7302 26.1054 31.5983 26.1054 31.4357H20.9966C22.3959 26.5203 25.9987 22.533 30.6692 20.6094V20.2541C25.4483 22.3555 21.5133 26.9778 20.3716 32.6136H26.1054C26.1054 32.451 26.2373 32.3191 26.4 32.3191H29.345C29.5076 32.3191 29.6395 32.451 29.6395 32.6136H31.9955V33.0553H29.6395C29.6395 33.218 29.5076 33.3498 29.345 33.3498H26.4C26.2373 33.3498 26.1054 33.218 26.1054 33.0553H19.1283C20.1868 26.5828 24.6767 21.264 30.6692 19.0275V18.7134C24.1524 21.1011 19.3618 27.0683 18.6793 34.2332H26.1054C26.1054 34.0706 26.2373 33.9388 26.4 33.9388H29.345C29.5076 33.9388 29.6395 34.0706 29.6395 34.2332H31.9955V34.675H29.6395C29.6395 34.8376 29.5076 34.9694 29.345 34.9694H26.4C26.2373 34.9694 26.1054 34.8376 26.1054 34.675H18.6426C18.6114 35.1126 18.5956 35.5545 18.5956 36.0001C18.5956 43.8293 23.4844 50.5166 30.376 53.1765V52.8604C23.6506 50.2157 18.8901 43.6638 18.8901 36.0001C18.8901 35.951 18.8903 35.9019 18.8907 35.8529H26.1054C26.1054 35.6902 26.2373 35.5584 26.4 35.5584H29.345C29.5076 35.5584 29.6395 35.6902 29.6395 35.8529H31.9955V36.2946H29.6395C29.6395 36.4572 29.5076 36.5891 29.345 36.5891H26.4C26.2373 36.5891 26.1054 36.4572 26.1054 36.2946H20.0361C20.1534 43.1881 24.3822 49.0803 30.376 51.6249V51.2668C24.6961 48.7985 20.6624 43.2539 20.3786 36.7363H20.769C21.0549 43.1467 25.0554 48.5908 30.6703 50.9685L30.6706 51.9026L30.6703 52.1848C24.2915 49.6877 19.749 43.5292 19.6288 36.2946H19.317C19.438 43.7041 24.1158 50.0057 30.6703 52.5192V53.757Z" fill="white"/>
<path d="M41.8614 51.5093C47.3646 49.7871 51.6088 45.2172 52.8681 39.5256L53.4753 38.3619C52.5743 44.7017 48.0994 49.8909 42.1555 51.8249V52.1706C48.2842 50.2195 52.9019 44.8812 53.8084 38.356H54.2195C53.2901 45.2111 48.3623 50.7962 41.8614 52.6859V51.5093Z" fill="white"/>
<path d="M53.4288 31.7302H53.8492C52.3665 25.8629 47.8988 21.1838 42.1559 19.4028L42.1557 20.3931L42.1559 20.5862C46.8832 22.1658 50.6427 25.8589 52.3126 30.5436L53.0072 31.4339C51.5203 26.2133 47.5477 22.0397 42.4502 20.2743V19.9265C47.8257 21.7476 51.9923 26.1891 53.4288 31.7302Z" fill="white"/>
<path d="M34.7933 18.4786H31.8483V23.8388H29.4718V28.2736H42.3965V38.2971C42.3965 42.119 40.4223 45.1116 36.1919 45.1116C31.9968 45.1116 29.9521 42.9122 29.9521 38.5855H25.3692C25.3692 43.8093 27.7852 47.2764 31.5538 48.7606V53.6689H34.4988V49.4851C35.0466 49.5499 35.6117 49.5825 36.1919 49.5825C36.7245 49.5825 37.2402 49.5534 37.7384 49.4965V53.6689H40.9779V48.6441C44.8524 46.9489 47.0499 43.1018 47.0499 38.2971V23.8388H41.2724V18.4786H38.0329V23.8388H34.7933V18.4786Z" fill="white"/>
<path d="M39.5054 30.6995H32.879V37.6177C32.7833 37.9213 32.7318 38.2433 32.7318 38.5768C32.7318 40.4065 34.2811 41.8897 36.1922 41.8897C38.1034 41.8897 39.6527 40.4065 39.6527 38.5768C39.6527 38.2433 39.6012 37.9213 39.5054 37.6177V30.6995Z" fill="white"/>
<path fill-rule="evenodd" clip-rule="evenodd" d="M37.0021 60.0002C50.1105 60.0002 60.7647 49.4929 61.0002 36.4418H60.2639C60.2666 36.2949 60.268 36.1477 60.268 36.0001C60.268 35.8526 60.2666 35.7053 60.2638 35.5584H58.6482V35.1167H59.5147C59.5033 34.8207 59.4861 34.5262 59.4634 34.2332H60.2019C60.1796 33.9372 60.1519 33.6427 60.1186 33.3498H60.8595C59.5403 21.342 49.3623 12 37.0021 12C23.7461 12 13 22.7452 13 36.0001C13 49.255 23.7461 60.0002 37.0021 60.0002ZM59.8356 36.4418C59.8384 36.2949 59.8398 36.1477 59.8398 36.0001H58.6482V36.4418H59.8356ZM40.2757 58.2918C39.207 58.4473 38.1139 58.5278 37.0021 58.5278C24.5594 58.5278 14.4725 48.4418 14.4725 36.0001C14.4725 33.9252 14.7531 31.9157 15.2783 30.0077C15.1652 29.9375 15.1105 29.7967 15.1542 29.6648L15.7433 27.887C15.7879 27.7522 15.9205 27.6714 16.0562 27.6869C19.3645 19.3597 27.4957 13.4724 37.0021 13.4724C48.3958 13.4724 57.8141 21.9294 59.3212 32.9081H60.3613C58.8471 21.3584 48.966 12.4417 37.0021 12.4417C23.9901 12.4417 13.4418 22.9892 13.4418 36.0001C13.4418 49.0111 23.9901 59.5585 37.0021 59.5585C49.7183 59.5585 60.0816 49.4852 60.5462 36.8836H59.5147C59.1242 47.0094 52.0497 55.4212 42.5781 57.8326C42.5317 57.9748 42.4114 58.0882 42.2541 58.1186L40.6714 58.4237C40.5201 58.4529 40.3722 58.398 40.2757 58.2918ZM40.1827 57.8862C39.1441 58.0358 38.0822 58.1132 37.0021 58.1132C24.7884 58.1132 14.8872 48.2128 14.8872 36.0001C14.8872 33.9692 15.161 32.0022 15.6737 30.1341C15.8003 30.1377 15.9196 30.0587 15.9615 29.9323L16.5506 28.1544C16.5915 28.0309 16.5461 27.8996 16.4473 27.8258C19.6983 19.6593 27.6761 13.887 37.0021 13.887C48.1664 13.887 57.3985 22.1591 58.9026 32.9081H57.8337C56.345 22.7926 47.6623 15.0173 37.1494 14.9453V15.3328C47.4478 15.4047 55.9565 23.0074 57.4419 32.9081H56.4394V32.6136C56.4394 32.4859 56.3581 32.3772 56.2445 32.3364C54.7268 24.3177 48.3201 18.0281 40.2408 16.6837V16.3166C48.5641 17.6755 55.1561 24.1853 56.6368 32.4664H57.0167C55.4435 23.4957 47.9855 16.5506 38.7691 15.7568V15.976H38.7681V17.4487H40.2408V17.0493C48.1148 18.385 54.3592 24.5082 55.8741 32.3191H55.4911C54.1134 25.3612 48.9054 19.7809 42.1559 17.8666L42.1557 18.7735L42.1559 19.0766C48.0713 20.8755 52.6732 25.6902 54.1707 31.7302H54.6078C53.1154 25.5556 48.4586 20.6158 42.4502 18.7233V18.4147C48.8117 20.383 53.6983 25.7076 55.0404 32.3191H54.8196C54.657 32.3191 54.5251 32.451 54.5251 32.6136V32.9081H53.7889L51.1383 29.9633H49.6658V29.5216H48.1933V30.994H49.6658V30.405H51.1383L53.7889 33.3498H54.5251V33.7915H53.6416L52.0218 32.1719H49.6658V31.7302H48.1933V33.2026H49.6658V32.6136H52.0218L53.6416 34.2332H54.5251V34.675H49.6658V34.2332H48.1933V35.7056H49.6658V35.1167H54.5251V35.5584H53.6416L52.0218 37.178H49.6658V36.7363H48.1933V38.2087H49.6658V37.6198H52.0218L53.6416 36.0001H54.5251V36.4418H53.7889L52.0218 39.3866H49.6658V38.7977H48.1933V40.2701H49.6658V39.8284H52.0218L53.7889 36.8836H54.5251V37.4725C54.5251 37.6352 54.657 37.767 54.8196 37.767H55.3249C54.6019 45.3577 49.268 51.604 42.1555 53.674V53.3671C48.9196 51.3633 54.0321 45.5161 54.9623 38.356H54.5341C53.5985 45.384 48.5354 51.1077 41.8614 53.0104L41.8609 53.9638L41.8614 54.2145C49.3662 52.2179 55.0304 45.707 55.7687 37.767H56.1461C55.2606 47.4826 47.1451 55.1089 37.2245 55.2214L36.8549 55.2886V55.5825L36.9499 55.583L37.0021 55.583C47.5223 55.583 56.1051 47.2889 56.5671 36.8836H56.7733C56.8242 36.9716 56.9194 37.0308 57.0284 37.0308H57.6464C57.1116 47.9179 48.152 56.5906 37.1495 56.6674V56.3187C47.86 56.2427 56.6008 47.8812 57.2804 37.3253H56.9056C56.2235 47.7229 47.5731 55.9453 37.0021 55.9453C36.953 55.9453 36.9039 55.9451 36.8549 55.9447V56.3187C36.8548 56.3187 36.8549 56.3187 36.8549 56.3187V57.0549C36.9039 57.0553 36.953 57.0554 37.0021 57.0554C48.286 57.0554 57.4969 48.1806 58.0344 37.0308H58.3537C58.4627 37.0308 58.5579 36.9716 58.6088 36.8836H59.0997C58.7098 46.808 51.7786 55.0521 42.4974 57.4252C42.4012 57.3125 42.2489 57.2534 42.0931 57.2834L40.5103 57.5886C40.3487 57.6197 40.2263 57.7385 40.1827 57.8862ZM56.7339 36.4418V36.0001H56.4394V36.4418H56.7339ZM56.7339 35.5584H56.5818C56.5785 35.4108 56.5736 35.2635 56.5671 35.1167H56.7339V35.5584ZM56.7733 34.675H56.5425C56.5326 34.5273 56.5211 34.38 56.508 34.2332H59.0899V34.675H58.6088C58.5579 34.5869 58.4627 34.5277 58.3537 34.5277H57.0284C56.9194 34.5277 56.8242 34.5869 56.7733 34.675ZM59.7343 33.7915C59.7201 33.6439 59.7046 33.4966 59.6876 33.3498H56.4394V33.7915H59.7343Z" fill="white"/>
</svg>
